<svg xmlns="http://www.w3.org/2000/svg" xmlns:xlink="http://www.w3.org/1999/xlink" width="500" zoomAndPan="magnify" viewBox="0 0 375 97.5" height="130" preserveAspectRatio="xMidYMid meet" version="1.0"><defs><g/></defs><g fill="#8c52ff" fill-opacity="1"><g transform="translate(26.242632, 71.183307)"><g><path d="M 39.171875 -39.171875 L 31.34375 -39.171875 L 31.34375 -31.34375 L 39.171875 -31.34375 L 39.171875 -23.5 L 47.015625 -23.5 L 47.015625 0 L 31.34375 0 L 31.34375 -23.5 L 23.5 -23.5 L 23.5 -31.34375 L 15.671875 -31.34375 L 15.671875 0 L 0 0 L 0 -54.84375 L 15.671875 -54.84375 L 15.671875 -39.171875 L 23.5 -39.171875 L 23.5 -47.015625 L 31.34375 -47.015625 L 31.34375 -54.84375 L 47.015625 -54.84375 L 47.015625 -47.015625 L 39.171875 -47.015625 Z M 39.171875 -39.171875 "/></g></g></g><g fill="#8c52ff" fill-opacity="1"><g transform="translate(81.085693, 71.183307)"><g><path d="M 39.171875 -31.34375 L 47.015625 -31.34375 L 47.015625 -15.671875 L 15.671875 -15.671875 L 15.671875 -7.828125 L 47.015625 -7.828125 L 47.015625 0 L 7.828125 0 L 7.828125 -7.828125 L 0 -7.828125 L 0 -31.34375 L 7.828125 -31.34375 L 7.828125 -39.171875 L 39.171875 -39.171875 Z M 31.34375 -23.5 L 31.34375 -31.34375 L 15.671875 -31.34375 L 15.671875 -23.5 Z M 31.34375 -23.5 "/></g></g></g><g fill="#8c52ff" fill-opacity="1"><g transform="translate(135.928754, 71.183307)"><g><path d="M 47.015625 -39.171875 L 47.015625 0 L 39.171875 0 L 39.171875 7.828125 L 0 7.828125 L 0 0 L 31.34375 0 L 31.34375 -7.828125 L 7.828125 -7.828125 L 7.828125 -15.671875 L 0 -15.671875 L 0 -39.171875 L 15.671875 -39.171875 L 15.671875 -15.671875 L 31.34375 -15.671875 L 31.34375 -39.171875 Z M 47.015625 -39.171875 "/></g></g></g><g fill="#8c52ff" fill-opacity="1"><g transform="translate(190.771816, 71.183307)"><g><path d="M 47.015625 -39.171875 L 39.171875 -39.171875 L 39.171875 -31.34375 L 47.015625 -31.34375 L 47.015625 -7.828125 L 39.171875 -7.828125 L 39.171875 0 L 0 0 L 0 -54.84375 L 39.171875 -54.84375 L 39.171875 -47.015625 L 47.015625 -47.015625 Z M 31.34375 -39.171875 L 31.34375 -47.015625 L 15.671875 -47.015625 L 15.671875 -39.171875 Z M 31.34375 -31.34375 L 15.671875 -31.34375 L 15.671875 -7.828125 L 31.34375 -7.828125 Z M 31.34375 -31.34375 "/></g></g></g><g fill="#8c52ff" fill-opacity="1"><g transform="translate(245.614877, 71.183307)"><g><path d="M 47.015625 -39.171875 L 47.015625 0 L 7.828125 0 L 7.828125 -7.828125 L 0 -7.828125 L 0 -39.171875 L 15.671875 -39.171875 L 15.671875 -7.828125 L 31.34375 -7.828125 L 31.34375 -39.171875 Z M 47.015625 -39.171875 "/></g></g></g><g fill="#8c52ff" fill-opacity="1"><g transform="translate(300.457925, 71.183307)"><g><path d="M 47.015625 -54.84375 L 47.015625 0 L 7.828125 0 L 7.828125 -7.828125 L 0 -7.828125 L 0 -31.34375 L 7.828125 -31.34375 L 7.828125 -39.171875 L 31.34375 -39.171875 L 31.34375 -54.84375 Z M 31.34375 -7.828125 L 31.34375 -23.5 L 23.5 -23.5 L 23.5 -31.34375 L 15.671875 -31.34375 L 15.671875 -7.828125 Z M 31.34375 -7.828125 "/></g></g></g></svg>