<svg xmlns="http://www.w3.org/2000/svg" xmlns:xlink="http://www.w3.org/1999/xlink" width="500" zoomAndPan="magnify" viewBox="0 0 375 135.000003" height="180" preserveAspectRatio="xMidYMid meet" version="1.0"><defs><g/></defs><g fill="#8c52ff" fill-opacity="1"><g transform="translate(6.466389, 76.167)"><g><path d="M 44.515625 -44.515625 L 35.609375 -44.515625 L 35.609375 -35.609375 L 44.515625 -35.609375 L 44.515625 -26.703125 L 53.421875 -26.703125 L 53.421875 0 L 35.609375 0 L 35.609375 -26.703125 L 26.703125 -26.703125 L 26.703125 -35.609375 L 17.8125 -35.609375 L 17.8125 0 L 0 0 L 0 -62.328125 L 17.8125 -62.328125 L 17.8125 -44.515625 L 26.703125 -44.515625 L 26.703125 -53.421875 L 35.609375 -53.421875 L 35.609375 -62.328125 L 53.421875 -62.328125 L 53.421875 -53.421875 L 44.515625 -53.421875 Z M 44.515625 -44.515625 "/></g></g></g><g fill="#8c52ff" fill-opacity="1"><g transform="translate(68.783637, 76.167)"><g><path d="M 44.515625 -35.609375 L 53.421875 -35.609375 L 53.421875 -17.8125 L 17.8125 -17.8125 L 17.8125 -8.90625 L 53.421875 -8.90625 L 53.421875 0 L 8.90625 0 L 8.90625 -8.90625 L 0 -8.90625 L 0 -35.609375 L 8.90625 -35.609375 L 8.90625 -44.515625 L 44.515625 -44.515625 Z M 35.609375 -26.703125 L 35.609375 -35.609375 L 17.8125 -35.609375 L 17.8125 -26.703125 Z M 35.609375 -26.703125 "/></g></g></g><g fill="#8c52ff" fill-opacity="1"><g transform="translate(131.100885, 76.167)"><g><path d="M 53.421875 -44.515625 L 53.421875 0 L 44.515625 0 L 44.515625 8.90625 L 0 8.90625 L 0 0 L 35.609375 0 L 35.609375 -8.90625 L 8.90625 -8.90625 L 8.90625 -17.8125 L 0 -17.8125 L 0 -44.515625 L 17.8125 -44.515625 L 17.8125 -17.8125 L 35.609375 -17.8125 L 35.609375 -44.515625 Z M 53.421875 -44.515625 "/></g></g></g><g fill="#8c52ff" fill-opacity="1"><g transform="translate(193.418133, 76.167)"><g><path d="M 53.421875 -44.515625 L 44.515625 -44.515625 L 44.515625 -35.609375 L 53.421875 -35.609375 L 53.421875 -8.90625 L 44.515625 -8.90625 L 44.515625 0 L 0 0 L 0 -62.328125 L 44.515625 -62.328125 L 44.515625 -53.421875 L 53.421875 -53.421875 Z M 35.609375 -44.515625 L 35.609375 -53.421875 L 17.8125 -53.421875 L 17.8125 -44.515625 Z M 35.609375 -35.609375 L 17.8125 -35.609375 L 17.8125 -8.90625 L 35.609375 -8.90625 Z M 35.609375 -35.609375 "/></g></g></g><g fill="#8c52ff" fill-opacity="1"><g transform="translate(255.735381, 76.167)"><g><path d="M 53.421875 -44.515625 L 53.421875 0 L 8.90625 0 L 8.90625 -8.90625 L 0 -8.90625 L 0 -44.515625 L 17.8125 -44.515625 L 17.8125 -8.90625 L 35.609375 -8.90625 L 35.609375 -44.515625 Z M 53.421875 -44.515625 "/></g></g></g><g fill="#8c52ff" fill-opacity="1"><g transform="translate(318.052629, 76.167)"><g><path d="M 53.421875 -62.328125 L 53.421875 0 L 8.90625 0 L 8.90625 -8.90625 L 0 -8.90625 L 0 -35.609375 L 8.90625 -35.609375 L 8.90625 -44.515625 L 35.609375 -44.515625 L 35.609375 -62.328125 Z M 35.609375 -8.90625 L 35.609375 -26.703125 L 26.703125 -26.703125 L 26.703125 -35.609375 L 17.8125 -35.609375 L 17.8125 -8.90625 Z M 35.609375 -8.90625 "/></g></g></g><g fill="#8c52ff" fill-opacity="1"><g transform="translate(164.566377, 114.303319)"><g><path d="M 5.765625 -11.3125 L 6.09375 -13.203125 L 9.859375 -13.203125 L 9.546875 -11.3125 Z M 5.765625 -11.3125 L 5.4375 -9.4375 L 9.203125 -9.4375 L 8.875 -7.546875 L 5.109375 -7.546875 L 3.765625 0 L 1.890625 0 L 3.21875 -7.546875 L 1.34375 -7.546875 L 1.65625 -9.4375 L 3.546875 -9.4375 L 3.890625 -11.3125 Z M 5.765625 -11.3125 "/></g></g></g><g fill="#8c52ff" fill-opacity="1"><g transform="translate(173.994596, 114.303319)"><g><path d="M 3.546875 -9.4375 L 9.203125 -9.4375 L 8.875 -7.546875 L 3.21875 -7.546875 Z M 0.34375 -1.890625 L 1.34375 -7.546875 L 3.21875 -7.546875 L 2.21875 -1.890625 Z M 10.765625 -7.546875 L 9.765625 -1.890625 L 7.890625 -1.890625 L 8.875 -7.546875 Z M 7.546875 0 L 1.890625 0 L 2.21875 -1.890625 L 7.890625 -1.890625 Z M 7.546875 0 "/></g></g></g><g fill="#8c52ff" fill-opacity="1"><g transform="translate(185.308464, 114.303319)"><g><path d="M 3.21875 -7.546875 L 5.109375 -7.546875 L 4.765625 -5.65625 L 2.890625 -5.65625 L 1.890625 0 L 0 0 L 1.65625 -9.4375 L 3.546875 -9.4375 Z M 8.875 -7.546875 L 5.109375 -7.546875 L 5.4375 -9.4375 L 9.203125 -9.4375 Z M 10.765625 -7.546875 L 10.421875 -5.65625 L 8.546875 -5.65625 L 8.875 -7.546875 Z M 10.765625 -7.546875 "/></g></g></g><g fill="#8c52ff" fill-opacity="1"><g transform="translate(196.622332, 114.303319)"><g/></g></g><g fill="#8c52ff" fill-opacity="1"><g transform="translate(204.164914, 114.303319)"><g><path d="M 7 -7.546875 L 3.21875 -7.546875 L 1.890625 0 L 0 0 L 2.3125 -13.203125 L 4.203125 -13.203125 L 3.546875 -9.4375 L 7.3125 -9.4375 Z M 11.421875 -11.3125 L 9.546875 -11.3125 L 9.859375 -13.203125 L 11.75 -13.203125 Z M 9.203125 -9.4375 L 7.3125 -9.4375 L 7.65625 -11.3125 L 9.546875 -11.3125 Z M 6.65625 -5.65625 L 7 -7.546875 L 8.875 -7.546875 L 8.546875 -5.65625 Z M 10.421875 -5.65625 L 9.4375 0 L 7.546875 0 L 8.546875 -5.65625 Z M 10.421875 -5.65625 "/></g></g></g><g fill="#8c52ff" fill-opacity="1"><g transform="translate(215.478782, 114.303319)"><g><path d="M 3.546875 -9.4375 L 9.203125 -9.4375 L 8.875 -7.546875 L 3.21875 -7.546875 Z M 10.765625 -7.546875 L 10.09375 -3.765625 L 2.546875 -3.765625 L 2.21875 -1.890625 L 0.34375 -1.890625 L 1.34375 -7.546875 L 3.21875 -7.546875 L 2.890625 -5.65625 L 8.546875 -5.65625 L 8.875 -7.546875 Z M 2.21875 -1.890625 L 9.765625 -1.890625 L 9.4375 0 L 1.890625 0 Z M 2.21875 -1.890625 "/></g></g></g><g fill="#8c52ff" fill-opacity="1"><g transform="translate(226.79265, 114.303319)"><g><path d="M 0.65625 -3.765625 L 1.65625 -9.4375 L 3.546875 -9.4375 L 2.546875 -3.765625 Z M 11.09375 -9.4375 L 9.4375 0 L 7.546875 0 L 7.890625 -1.890625 L 2.21875 -1.890625 L 2.546875 -3.765625 L 8.203125 -3.765625 L 9.203125 -9.4375 Z M 7.203125 1.890625 L -0.34375 1.890625 L 0 0 L 7.546875 0 Z M 7.203125 1.890625 "/></g></g></g><g fill="#8c52ff" fill-opacity="1"><g transform="translate(238.106518, 114.303319)"><g><path d="M 7.546875 0 L 0 0 L 2.3125 -13.203125 L 4.203125 -13.203125 L 3.21875 -7.546875 L 5.109375 -7.546875 L 4.765625 -5.65625 L 2.890625 -5.65625 L 2.21875 -1.890625 L 7.890625 -1.890625 Z M 5.109375 -7.546875 L 5.4375 -9.4375 L 9.203125 -9.4375 L 8.875 -7.546875 Z M 10.765625 -7.546875 L 9.765625 -1.890625 L 7.890625 -1.890625 L 8.875 -7.546875 Z M 10.765625 -7.546875 "/></g></g></g><g fill="#8c52ff" fill-opacity="1"><g transform="translate(249.420386, 114.303319)"><g><path d="M 3.546875 -9.4375 L 9.203125 -9.4375 L 8.875 -7.546875 L 3.21875 -7.546875 Z M 0.34375 -1.890625 L 1.34375 -7.546875 L 3.21875 -7.546875 L 2.21875 -1.890625 Z M 10.765625 -7.546875 L 9.765625 -1.890625 L 7.890625 -1.890625 L 8.875 -7.546875 Z M 7.546875 0 L 1.890625 0 L 2.21875 -1.890625 L 7.890625 -1.890625 Z M 7.546875 0 "/></g></g></g><g fill="#8c52ff" fill-opacity="1"><g transform="translate(260.734254, 114.303319)"><g><path d="M 8.875 -7.546875 L 3.21875 -7.546875 L 3.546875 -9.4375 L 9.203125 -9.4375 Z M 10.765625 -7.546875 L 9.4375 0 L 1.890625 0 L 2.21875 -1.890625 L 7.890625 -1.890625 L 8.203125 -3.765625 L 2.546875 -3.765625 L 2.890625 -5.65625 L 8.546875 -5.65625 L 8.875 -7.546875 Z M 2.546875 -3.765625 L 2.21875 -1.890625 L 0.34375 -1.890625 L 0.65625 -3.765625 Z M 2.546875 -3.765625 "/></g></g></g><g fill="#8c52ff" fill-opacity="1"><g transform="translate(272.048122, 114.303319)"><g><path d="M 3.21875 -7.546875 L 5.109375 -7.546875 L 4.765625 -5.65625 L 2.890625 -5.65625 L 1.890625 0 L 0 0 L 1.65625 -9.4375 L 3.546875 -9.4375 Z M 8.875 -7.546875 L 5.109375 -7.546875 L 5.4375 -9.4375 L 9.203125 -9.4375 Z M 10.765625 -7.546875 L 10.421875 -5.65625 L 8.546875 -5.65625 L 8.875 -7.546875 Z M 10.765625 -7.546875 "/></g></g></g><g fill="#8c52ff" fill-opacity="1"><g transform="translate(283.36199, 114.303319)"><g><path d="M 11.75 -13.203125 L 9.4375 0 L 1.890625 0 L 2.21875 -1.890625 L 7.890625 -1.890625 L 8.546875 -5.65625 L 6.65625 -5.65625 L 7 -7.546875 L 8.875 -7.546875 L 9.859375 -13.203125 Z M 3.21875 -7.546875 L 3.546875 -9.4375 L 7.3125 -9.4375 L 7 -7.546875 Z M 0.34375 -1.890625 L 1.34375 -7.546875 L 3.21875 -7.546875 L 2.21875 -1.890625 Z M 0.34375 -1.890625 "/></g></g></g><g fill="#8c52ff" fill-opacity="1"><g transform="translate(294.675858, 114.303319)"><g/></g></g><g fill="#8c52ff" fill-opacity="1"><g transform="translate(302.21844, 114.303319)"><g><path d="M 4.203125 -13.203125 L 9.859375 -13.203125 L 9.546875 -11.3125 L 3.890625 -11.3125 Z M 11.421875 -11.3125 L 9.4375 0 L 7.546875 0 L 8.875 -7.546875 L 3.21875 -7.546875 L 1.890625 0 L 0 0 L 2 -11.3125 L 3.890625 -11.3125 L 3.546875 -9.4375 L 9.203125 -9.4375 L 9.546875 -11.3125 Z M 11.421875 -11.3125 "/></g></g></g><g fill="#8c52ff" fill-opacity="1"><g transform="translate(313.532308, 114.303319)"><g><path d="M 11.75 -13.203125 L 9.4375 0 L 1.890625 0 L 2.21875 -1.890625 L 7.890625 -1.890625 L 8.546875 -5.65625 L 6.65625 -5.65625 L 7 -7.546875 L 8.875 -7.546875 L 9.859375 -13.203125 Z M 3.21875 -7.546875 L 3.546875 -9.4375 L 7.3125 -9.4375 L 7 -7.546875 Z M 0.34375 -1.890625 L 1.34375 -7.546875 L 3.21875 -7.546875 L 2.21875 -1.890625 Z M 0.34375 -1.890625 "/></g></g></g><g fill="#8c52ff" fill-opacity="1"><g transform="translate(324.846176, 114.303319)"><g><path d="M 11.75 -13.203125 L 9.4375 0 L 1.890625 0 L 2.21875 -1.890625 L 7.890625 -1.890625 L 8.546875 -5.65625 L 6.65625 -5.65625 L 7 -7.546875 L 8.875 -7.546875 L 9.859375 -13.203125 Z M 3.21875 -7.546875 L 3.546875 -9.4375 L 7.3125 -9.4375 L 7 -7.546875 Z M 0.34375 -1.890625 L 1.34375 -7.546875 L 3.21875 -7.546875 L 2.21875 -1.890625 Z M 0.34375 -1.890625 "/></g></g></g><g fill="#8c52ff" fill-opacity="1"><g transform="translate(336.160044, 114.303319)"><g><path d="M 4.203125 -13.203125 L 3.890625 -11.3125 L 2 -11.3125 L 2.3125 -13.203125 Z M 3.546875 -9.4375 L 1.890625 0 L 0 0 L 1.65625 -9.4375 Z M 3.546875 -9.4375 "/></g></g></g><g fill="#8c52ff" fill-opacity="1"><g transform="translate(339.931329, 114.303319)"><g><path d="M 8.875 -7.546875 L 3.21875 -7.546875 L 3.546875 -9.4375 L 9.203125 -9.4375 Z M 3.21875 -7.546875 L 2.21875 -1.890625 L 0.34375 -1.890625 L 1.34375 -7.546875 Z M 8.546875 -5.65625 L 8.875 -7.546875 L 10.765625 -7.546875 L 10.421875 -5.65625 Z M 9.765625 -1.890625 L 7.890625 -1.890625 L 8.203125 -3.765625 L 10.09375 -3.765625 Z M 2.21875 -1.890625 L 7.890625 -1.890625 L 7.546875 0 L 1.890625 0 Z M 2.21875 -1.890625 "/></g></g></g><g fill="#8c52ff" fill-opacity="1"><g transform="translate(351.245197, 114.303319)"><g><path d="M 2.21875 -1.890625 L 3.21875 -7.546875 L 1.34375 -7.546875 L 1.65625 -9.4375 L 3.546875 -9.4375 L 4.203125 -13.203125 L 6.09375 -13.203125 L 5.4375 -9.4375 L 7.3125 -9.4375 L 7 -7.546875 L 5.109375 -7.546875 L 4.109375 -1.890625 Z M 3.765625 0 L 4.109375 -1.890625 L 6 -1.890625 L 5.65625 0 Z M 3.765625 0 "/></g></g></g><g fill="#8c52ff" fill-opacity="1"><g transform="translate(358.787791, 114.303319)"><g><path d="M 3.546875 -9.4375 L 11.09375 -9.4375 L 10.765625 -7.546875 L 3.21875 -7.546875 Z M 3.21875 -7.546875 L 2.890625 -5.65625 L 1 -5.65625 L 1.34375 -7.546875 Z M 2.890625 -5.65625 L 8.546875 -5.65625 L 8.203125 -3.765625 L 2.546875 -3.765625 Z M 7.890625 -1.890625 L 8.203125 -3.765625 L 10.09375 -3.765625 L 9.765625 -1.890625 Z M 7.546875 0 L 0 0 L 0.34375 -1.890625 L 7.890625 -1.890625 Z M 7.546875 0 "/></g></g></g></svg>